# xmcd
#
# Track frame offsets:
#	150
#	14239
#	30782
#	42885
#	63961
#	77233
#	91185
#	102221
#	115390
#	127242
#	139034
#	152494
#	166105
#	176785
#	191594
#	205323
#
# Disc length: 2926 seconds
#
# Revision: 0
# Processed by: cddbd v1.4PL0 Copyright (c) Steve Scherf et al.
# Submitted via: dBpowerAMP V4.0
#
DISCID=d30b6c10
DTITLE=Various Artist - Classic Country Hits CD 2
DYEAR=1900
DGENRE=Country
TTITLE0=Mickey Gilley - You Don't Know Me
TTITLE1=Janie Fricke and Merle Haggard - A Place To Fall Apart
TTITLE2=Larry And The Gatlin Bros Band - All The Gold In California
TTITLE3=Willie Nelson - Bridge Over Troubled Water
TTITLE4=Louise Mandrell - Everlasting Love
TTITLE5=Ernest Tubb and Red Foley - Goodnight Irene
TTITLE6=The Kendalls - Heaven's Just A Sin Away
TTITLE7=Waylon Jennings - The Eagle
TTITLE8=Patsy Cline - Walkin' After Midnight
TTITLE9=Freddy Fender	 - Before The Next Teardrop Falls
TTITLE10=George Morgan - Candy Kisses
TTITLE11=Loretta Lynn - Coal Miner's Daughter
TTITLE12=Jim Reeves - He'll Have To Go
TTITLE13=Bobby Vinton - My Elusive Dreams
TTITLE14=Charly McClain and Mickey Gilley - Paradise Tonight
TTITLE15=Johnny Cash - Ragged Old Flag
EXTD=
EXTT0=
EXTT1=
EXTT2=
EXTT3=
EXTT4=
EXTT5=
EXTT6=
EXTT7=
EXTT8=
EXTT9=
EXTT10=
EXTT11=
EXTT12=
EXTT13=
EXTT14=
EXTT15=
PLAYORDER=
